{
  "accessors": [
    {
      "bufferView": 2,
      "componentType": 5126,
      "count": 8142,
      "max": [
        0.77115797996521,
        0.9890940189361572,
        0.5692729949951172
      ],
      "min": [
        -0.7711920142173767,
        -1.1211810111999512,
        -0.4552760124206543
      ],
      "type": "VEC3"
    },
    {
      "bufferView": 2,
      "byteOffset": 97704,
      "componentType": 5126,
      "count": 8142,
      "max": [
        1.0,
        0.9995003342628479,
        1.0
      ],
      "min": [
        -0.9999215006828308,
        -0.999941349029541,
        -0.9999706149101257
      ],
      "type": "VEC3"
    },
    {
      "bufferView": 3,
      "componentType": 5126,
      "count": 8142,
      "max": [
        1.0,
        1.0,
        0.9999961256980896,
        1.0
      ],
      "min": [
        -1.0,
        -0.9999986290931702,
        -0.9999827146530151,
        -1.0
      ],
      "type": "VEC4"
    },
    {
      "bufferView": 1,
      "componentType": 5126,
      "count": 8142,
      "max": [
        0.9950000047683716,
        0.9595180153846741
      ],
      "min": [
        0.004999999888241291,
        0.004999999888241291
      ],
      "type": "VEC2"
    },
    {
      "bufferView": 0,
      "componentType": 5125,
      "count": 30528,
      "type": "SCALAR"
    },
    {
      "bufferView": 2,
      "byteOffset": 195408,
      "componentType": 5126,
      "count": 1126,
      "max": [
        0.7546809911727905,
        0.9185659885406494,
        0.41735899448394775
      ],
      "min": [
        -0.7546830177307129,
        -0.9732120037078857,
        -0.4006749987602234
      ],
      "type": "VEC3"
    },
    {
      "bufferView": 2,
      "byteOffset": 208920,
      "componentType": 5126,
      "count": 1126,
      "max": [
        0.9994073510169983,
        0.9877956509590149,
        0.9865044951438904
      ],
      "min": [
        -0.9994140267372131,
        -0.9990100264549255,
        -0.989988386631012
      ],
      "type": "VEC3"
    },
    {
      "bufferView": 3,
      "byteOffset": 130272,
      "componentType": 5126,
      "count": 1126,
      "max": [
        0.9995216727256775,
        0.999958872795105,
        0.9995642304420471,
        1.0
      ],
      "min": [
        -0.9958610534667969,
        -0.9925066828727722,
        -0.9993848204612732,
        -1.0
      ],
      "type": "VEC4"
    },
    {
      "bufferView": 1,
      "byteOffset": 65136,
      "componentType": 5126,
      "count": 1126,
      "max": [
        0.9358749985694885,
        0.9440619945526123
      ],
      "min": [
        0.004999999888241291,
        0.004999999888241291
      ],
      "type": "VEC2"
    },
    {
      "bufferView": 0,
      "byteOffset": 122112,
      "componentType": 5125,
      "count": 3972,
      "type": "SCALAR"
    }
  ],
  "asset": {
    "extras": {
      "author": "mgfxer (https://sketchfab.com/mgfxer)",
      "license": "CC-BY-4.0 (http://creativecommons.org/licenses/by/4.0/)",
      "source": "https://sketchfab.com/3d-models/providence-captive-transport-space-ship-9c61c9ce3798464c9dea7e77d7d81c19",
      "title": "Providence Captive Transport Space Ship"
    },
    "generator": "Sketchfab-12.66.0",
    "version": "2.0"
  },
  "bufferViews": [
    {
      "buffer": 0,
      "byteLength": 138000,
      "name": "floatBufferViews",
      "target": 34963
    },
    {
      "buffer": 0,
      "byteLength": 74144,
      "byteOffset": 138000,
      "byteStride": 8,
      "name": "floatBufferViews",
      "target": 34962
    },
    {
      "buffer": 0,
      "byteLength": 222432,
      "byteOffset": 212144,
      "byteStride": 12,
      "name": "floatBufferViews",
      "target": 34962
    },
    {
      "buffer": 0,
      "byteLength": 148288,
      "byteOffset": 434576,
      "byteStride": 16,
      "name": "floatBufferViews",
      "target": 34962
    }
  ],
  "buffers": [
    {
      "byteLength": 582864,
      "uri": "scene.bin"
    }
  ],
  "extensionsUsed": [
    "KHR_materials_clearcoat"
  ],
  "images": [
    {
      "uri": "textures/default_baseColor.jpeg"
    },
    {
      "uri": "textures/default_metallicRoughness.png"
    },
    {
      "uri": "textures/default_normal.png"
    }
  ],
  "materials": [
    {
      "doubleSided": true,
      "extensions": {
        "KHR_materials_clearcoat": {
          "clearcoatFactor": 0.2866907756,
          "clearcoatRoughnessFactor": 0.04
        }
      },
      "name": "default",
      "normalTexture": {
        "index": 2
      },
      "occlusionTexture": {
        "index": 1
      },
      "pbrMetallicRoughness": {
        "baseColorTexture": {
          "index": 0
        },
        "metallicRoughnessTexture": {
          "index": 1
        },
        "roughnessFactor": 0.4624483513
      }
    }
  ],
  "meshes": [
    {
      "name": "Object_0",
      "primitives": [
        {
          "attributes": {
            "NORMAL": 1,
            "POSITION": 0,
            "TANGENT": 2,
            "TEXCOORD_0": 3
          },
          "indices": 4,
          "material": 0,
          "mode": 4
        }
      ]
    },
    {
      "name": "Object_1",
      "primitives": [
        {
          "attributes": {
            "NORMAL": 6,
            "POSITION": 5,
            "TANGENT": 7,
            "TEXCOORD_0": 8
          },
          "indices": 9,
          "material": 0,
          "mode": 4
        }
      ]
    }
  ],
  "nodes": [
    {
      "children": [
        1
      ],
      "matrix": [
        1.0,
        0.0,
        0.0,
        0.0,
        0.0,
        2.220446049250313e-16,
        -1.0,
        0.0,
        0.0,
        1.0,
        2.220446049250313e-16,
        0.0,
        0.0,
        0.0,
        0.0,
        1.0
      ],
      "name": "Sketchfab_model"
    },
    {
      "children": [
        2,
        3
      ],
      "name": "LowResGreebleShip.Obj.cleaner.materialmerger.gles"
    },
    {
      "mesh": 0,
      "name": "Object_2"
    },
    {
      "mesh": 1,
      "name": "Object_3"
    }
  ],
  "samplers": [
    {
      "magFilter": 9729,
      "minFilter": 9987,
      "wrapS": 10497,
      "wrapT": 10497
    }
  ],
  "scene": 0,
  "scenes": [
    {
      "name": "Sketchfab_Scene",
      "nodes": [
        0
      ]
    }
  ],
  "textures": [
    {
      "sampler": 0,
      "source": 0
    },
    {
      "sampler": 0,
      "source": 1
    },
    {
      "sampler": 0,
      "source": 2
    }
  ]
}
