# Blender v2.81 (sub 16) OBJ File: 'Pickup Items.blend'
# www.blender.org
mtllib Coin.mtl
o Coin_Mesh.338
v 0.170000 -0.000000 -0.040093
v 0.147224 0.085000 -0.040093
v 0.085000 0.147224 -0.040093
v -0.000000 0.170000 -0.040093
v -0.085000 0.147224 -0.040093
v -0.147224 0.085000 -0.040093
v -0.170000 0.000000 -0.040093
v -0.147224 -0.085000 -0.040093
v -0.085000 -0.147224 -0.040093
v -0.000000 -0.170000 -0.040093
v 0.085000 -0.147224 -0.040093
v 0.147224 -0.085000 -0.040093
v 0.170000 0.000000 0.040093
v 0.147224 0.085000 0.040093
v 0.085000 0.147224 0.040093
v -0.000000 0.170000 0.040093
v -0.085000 0.147224 0.040093
v -0.147224 0.085000 0.040093
v -0.170000 0.000000 0.040093
v -0.147224 -0.085000 0.040093
v -0.085000 -0.147224 0.040093
v -0.000000 -0.170000 0.040093
v 0.085000 -0.147224 0.040093
v 0.147224 -0.085000 0.040093
vt 0.881066 0.692712
vt 0.903714 0.686643
vt 0.926363 0.692712
vt 0.942943 0.709292
vt 0.949011 0.731941
vt 0.942943 0.754589
vt 0.926363 0.771169
vt 0.903714 0.777238
vt 0.881066 0.771169
vt 0.864486 0.754589
vt 0.858417 0.731941
vt 0.864486 0.709292
vt 0.449891 0.651346
vt 0.426091 0.651346
vt 0.426091 0.630333
vt 0.449891 0.630333
vt 0.711691 0.651346
vt 0.687891 0.651346
vt 0.687891 0.630333
vt 0.711691 0.630333
vt 0.664091 0.651346
vt 0.664091 0.630333
vt 0.640291 0.651346
vt 0.640291 0.630333
vt 0.616491 0.651346
vt 0.616491 0.630333
vt 0.592691 0.651346
vt 0.592691 0.630333
vt 0.568891 0.651346
vt 0.568891 0.630333
vt 0.545091 0.651346
vt 0.545091 0.630333
vt 0.521291 0.651346
vt 0.521291 0.630333
vt 0.497491 0.651346
vt 0.497491 0.630333
vt 0.473691 0.651346
vt 0.473691 0.630333
vt 0.819628 0.726626
vt 0.813559 0.749275
vt 0.796979 0.765855
vt 0.774330 0.771923
vt 0.751682 0.765855
vt 0.735102 0.749275
vt 0.729033 0.726626
vt 0.735102 0.703978
vt 0.751682 0.687398
vt 0.774330 0.681329
vt 0.796979 0.687398
vt 0.813559 0.703978
vn -0.0000 -0.0000 -1.0000
vn 1.0000 0.0000 0.0000
vn 0.8660 0.5000 0.0000
vn 0.5000 0.8660 0.0000
vn -0.0000 1.0000 0.0000
vn -0.5000 0.8660 0.0000
vn -0.8660 0.5000 0.0000
vn -1.0000 0.0000 0.0000
vn -0.8660 -0.5000 0.0000
vn -0.5000 -0.8660 0.0000
vn -0.0000 -1.0000 0.0000
vn 0.5000 -0.8660 0.0000
vn 0.8660 -0.5000 0.0000
vn 0.0000 0.0000 1.0000
usemtl None
s 1
f 11/1/1 10/2/1 9/3/1
f 9/3/1 8/4/1 7/5/1
f 7/5/1 6/6/1 5/7/1
f 9/3/1 7/5/1 5/7/1
f 5/7/1 4/8/1 3/9/1
f 3/9/1 2/10/1 1/11/1
f 5/7/1 3/9/1 1/11/1
f 9/3/1 5/7/1 1/11/1
f 11/1/1 9/3/1 1/11/1
f 12/12/1 11/1/1 1/11/1
s 2
f 1/13/2 2/14/3 14/15/3
f 14/15/3 13/16/2 1/13/2
f 2/17/3 3/18/4 15/19/4
f 15/19/4 14/20/3 2/17/3
f 3/18/4 4/21/5 16/22/5
f 16/22/5 15/19/4 3/18/4
f 4/21/5 5/23/6 17/24/6
f 17/24/6 16/22/5 4/21/5
f 5/23/6 6/25/7 18/26/7
f 18/26/7 17/24/6 5/23/6
f 6/25/7 7/27/8 19/28/8
f 19/28/8 18/26/7 6/25/7
f 7/27/8 8/29/9 20/30/9
f 20/30/9 19/28/8 7/27/8
f 8/29/9 9/31/10 21/32/10
f 21/32/10 20/30/9 8/29/9
f 9/31/10 10/33/11 22/34/11
f 22/34/11 21/32/10 9/31/10
f 10/33/11 11/35/12 23/36/12
f 23/36/12 22/34/11 10/33/11
f 11/35/12 12/37/13 24/38/13
f 24/38/13 23/36/12 11/35/12
f 12/37/13 1/13/2 13/16/2
f 13/16/2 24/38/13 12/37/13
s 3
f 13/39/14 14/40/14 15/41/14
f 15/41/14 16/42/14 17/43/14
f 17/43/14 18/44/14 19/45/14
f 15/41/14 17/43/14 19/45/14
f 19/45/14 20/46/14 21/47/14
f 21/47/14 22/48/14 23/49/14
f 19/45/14 21/47/14 23/49/14
f 15/41/14 19/45/14 23/49/14
f 13/39/14 15/41/14 23/49/14
f 24/50/14 13/39/14 23/49/14
