# Blender v2.81 (sub 16) OBJ File: 'Pickup Items.blend'
# www.blender.org
mtllib Hedra.mtl
o Hedra_Mesh.336
v 0.000000 0.317740 -0.000000
v 0.123056 0.000000 -0.123057
v -0.123056 0.000000 -0.123057
v -0.123056 0.000000 0.123057
v 0.123056 0.000000 0.123057
v 0.000000 -0.317740 0.000000
vt 0.773302 0.245035
vt 0.741970 0.152192
vt 0.804634 0.152192
vt 0.698072 0.246524
vt 0.729404 0.153682
vt 0.760736 0.246524
vt 0.654143 0.153283
vt 0.716807 0.153283
vt 0.685475 0.246126
vt 0.610211 0.246235
vt 0.641543 0.153392
vt 0.672875 0.246235
vt 0.566939 0.153571
vt 0.629603 0.153571
vt 0.598270 0.246414
vt 0.480150 0.152971
vt 0.542815 0.152971
vt 0.511483 0.245813
vt 0.523346 0.246022
vt 0.554678 0.153180
vt 0.586010 0.246022
vt 0.847990 0.245176
vt 0.785326 0.245176
vt 0.816658 0.152333
vn 0.9325 0.3611 -0.0000
vn 0.0000 -0.3611 -0.9325
vn -0.9325 0.3611 -0.0000
vn 0.0000 -0.3611 0.9325
vn 0.0000 0.3611 -0.9325
vn 0.0000 0.3611 0.9325
vn 0.9325 -0.3611 0.0000
vn -0.9325 -0.3611 0.0000
usemtl None
s 1
f 1/1/1 5/2/1 2/3/1
s 2
f 2/4/2 6/5/2 3/6/2
s 3
f 3/7/3 4/8/3 1/9/3
s 4
f 4/10/4 6/11/4 5/12/4
s 5
f 2/13/5 3/14/5 1/15/5
s 6
f 4/16/6 5/17/6 1/18/6
s 7
f 5/19/7 6/20/7 2/21/7
s 8
f 4/22/8 3/23/8 6/24/8
