# Blender v2.81 (sub 16) OBJ File: 'Pickup Items.blend'
# www.blender.org
mtllib Magnet.mtl
o Magnet.001_Mesh.556
v 0.215000 -0.012365 -0.040001
v -0.215000 -0.012365 -0.040001
v -0.202034 -0.085899 -0.040001
v -0.164700 -0.150564 -0.040001
v -0.107500 -0.198560 -0.040001
v -0.037334 -0.224098 -0.040001
v 0.037334 -0.224098 -0.040001
v 0.107500 -0.198560 -0.040001
v 0.164699 -0.150564 -0.040001
v 0.202034 -0.085899 -0.040001
v 0.215000 -0.012365 0.040001
v -0.215000 -0.012365 0.040001
v -0.202034 -0.085899 0.040001
v -0.164700 -0.150564 0.040001
v -0.107500 -0.198560 0.040001
v -0.037334 -0.224098 0.040001
v 0.037334 -0.224098 0.040001
v 0.107500 -0.198560 0.040001
v 0.164699 -0.150564 0.040001
v 0.202034 -0.085899 0.040001
v 0.117519 -0.012365 -0.040001
v 0.110432 -0.052559 -0.040001
v 0.090025 -0.087904 -0.040001
v 0.058759 -0.114139 -0.040001
v 0.020407 -0.128098 -0.040001
v -0.020407 -0.128098 -0.040001
v -0.058760 -0.114139 -0.040001
v -0.090025 -0.087904 -0.040001
v -0.110432 -0.052558 -0.040001
v -0.117519 -0.012365 -0.040001
v 0.117519 -0.012365 0.040001
v -0.117519 -0.012365 0.040001
v -0.110432 -0.052558 0.040001
v -0.090025 -0.087904 0.040001
v -0.058760 -0.114139 0.040001
v -0.020407 -0.128098 0.040001
v 0.020407 -0.128098 0.040001
v 0.058759 -0.114139 0.040001
v 0.090025 -0.087904 0.040001
v 0.110432 -0.052559 0.040001
v 0.215000 0.224098 -0.040001
v -0.215000 0.224098 -0.040001
v 0.215000 0.224098 0.040001
v -0.215000 0.224098 0.040001
v 0.117519 0.224098 -0.040001
v -0.117519 0.224098 -0.040001
v 0.117519 0.224098 0.040001
v -0.117519 0.224098 0.040001
vt 0.434371 0.152904
vt 0.434371 0.211710
vt 0.492751 0.211710
vt 0.492751 0.152904
vt 0.434371 0.270604
vt 0.492751 0.270604
vt 0.434371 0.330269
vt 0.492751 0.330269
vt 0.434371 0.390781
vt 0.492751 0.390781
vt 0.434371 0.451654
vt 0.492751 0.451654
vt 0.434371 0.512167
vt 0.492751 0.512167
vt 0.434371 0.571831
vt 0.492751 0.571831
vt 0.434371 0.630726
vt 0.492751 0.630726
vt 0.434371 0.689531
vt 0.492751 0.689531
vt 0.434370 0.838324
vt 0.492751 0.838324
vt 0.492751 0.004111
vt 0.434370 0.004111
vt 0.683905 0.158492
vt 0.693315 0.104833
vt 0.759795 0.129162
vt 0.754652 0.158492
vt 0.720411 0.057646
vt 0.774606 0.103369
vt 0.761923 0.022622
vt 0.797297 0.084225
vt 0.812846 0.003986
vt 0.825131 0.074039
vt 0.867037 0.003986
vt 0.854752 0.074039
vt 0.917960 0.022622
vt 0.882586 0.084225
vt 0.959473 0.057646
vt 0.905277 0.103369
vt 0.986568 0.104833
vt 0.920088 0.129162
vt 0.995978 0.158492
vt 0.925231 0.158492
vt 0.754652 0.331043
vt 0.683905 0.331043
vt 0.995978 0.331043
vt 0.925231 0.331043
vt 0.004065 0.158492
vt 0.013475 0.104833
vt 0.079955 0.129162
vt 0.074812 0.158492
vt 0.040570 0.057646
vt 0.094766 0.103369
vt 0.082083 0.022622
vt 0.117456 0.084225
vt 0.133006 0.003986
vt 0.145291 0.074039
vt 0.187197 0.003986
vt 0.174912 0.074039
vt 0.238120 0.022622
vt 0.202746 0.084225
vt 0.279632 0.057646
vt 0.225437 0.103369
vt 0.306728 0.104833
vt 0.240247 0.129162
vt 0.316138 0.158492
vt 0.245391 0.158492
vt 0.316138 0.331043
vt 0.245391 0.331043
vt 0.074812 0.331043
vt 0.004065 0.331043
vt 0.574163 0.471730
vt 0.574163 0.443681
vt 0.632573 0.443681
vt 0.632573 0.471730
vt 0.574163 0.412091
vt 0.632573 0.412091
vt 0.574163 0.375155
vt 0.632573 0.375155
vt 0.574163 0.332844
vt 0.632573 0.332844
vt 0.574163 0.288152
vt 0.632573 0.288152
vt 0.574163 0.245841
vt 0.632573 0.245841
vt 0.574163 0.208905
vt 0.632573 0.208905
vt 0.574163 0.177315
vt 0.632573 0.177315
vt 0.574163 0.149266
vt 0.632573 0.149266
vt 0.632573 0.616725
vt 0.574163 0.616725
vt 0.574163 0.004271
vt 0.632573 0.004271
vt 0.772283 0.498338
vt 0.772283 0.440619
vt 0.844202 0.440619
vt 0.844202 0.498338
vt 0.164098 0.441788
vt 0.164098 0.499507
vt 0.092179 0.499506
vt 0.092179 0.441788
vn -0.9962 -0.0872 -0.0000
vn -0.9397 -0.3420 -0.0000
vn -0.7660 -0.6428 -0.0000
vn -0.5000 -0.8660 -0.0000
vn -0.1736 -0.9848 -0.0000
vn 0.1736 -0.9848 -0.0000
vn 0.5000 -0.8660 -0.0000
vn 0.7660 -0.6428 -0.0000
vn 0.9397 -0.3420 -0.0000
vn 0.9962 -0.0872 -0.0000
vn 1.0000 0.0000 0.0000
vn -1.0000 0.0000 0.0000
vn -0.0000 -0.0000 -1.0000
vn 0.0000 0.0000 1.0000
vn -0.9962 0.0872 0.0000
vn -0.9397 0.3420 0.0000
vn -0.7660 0.6428 0.0000
vn -0.5000 0.8660 0.0000
vn -0.1736 0.9848 0.0000
vn 0.1736 0.9848 -0.0000
vn 0.5000 0.8660 0.0000
vn 0.7660 0.6428 0.0000
vn 0.9397 0.3420 0.0000
vn 0.9962 0.0872 0.0000
vn 0.0000 1.0000 0.0000
usemtl None
s 1
f 2/1/1 3/2/2 13/3/2 12/4/1
f 3/2/2 4/5/3 14/6/3 13/3/2
f 4/5/3 5/7/4 15/8/4 14/6/3
f 5/7/4 6/9/5 16/10/5 15/8/4
f 6/9/5 7/11/6 17/12/6 16/10/5
f 7/11/6 8/13/7 18/14/7 17/12/6
f 8/13/7 9/15/8 19/16/8 18/14/7
f 9/15/8 10/17/9 20/18/9 19/16/8
f 10/17/9 1/19/10 11/20/10 20/18/9
f 11/20/10 1/19/10 41/21/11 43/22/11
f 2/1/1 12/4/1 44/23/12 42/24/12
s 2
f 1/25/13 10/26/13 22/27/13 21/28/13
f 10/26/13 9/29/13 23/30/13 22/27/13
f 9/29/13 8/31/13 24/32/13 23/30/13
f 8/31/13 7/33/13 25/34/13 24/32/13
f 7/33/13 6/35/13 26/36/13 25/34/13
f 6/35/13 5/37/13 27/38/13 26/36/13
f 5/37/13 4/39/13 28/40/13 27/38/13
f 4/39/13 3/41/13 29/42/13 28/40/13
f 3/41/13 2/43/13 30/44/13 29/42/13
f 1/25/13 21/28/13 45/45/13 41/46/13
f 30/44/13 2/43/13 42/47/13 46/48/13
s 3
f 12/49/14 13/50/14 33/51/14 32/52/14
f 13/50/14 14/53/14 34/54/14 33/51/14
f 14/53/14 15/55/14 35/56/14 34/54/14
f 15/55/14 16/57/14 36/58/14 35/56/14
f 16/57/14 17/59/14 37/60/14 36/58/14
f 17/59/14 18/61/14 38/62/14 37/60/14
f 18/61/14 19/63/14 39/64/14 38/62/14
f 19/63/14 20/65/14 40/66/14 39/64/14
f 20/65/14 11/67/14 31/68/14 40/66/14
f 31/68/14 11/67/14 43/69/14 47/70/14
f 12/49/14 32/52/14 48/71/14 44/72/14
s 4
f 21/73/15 22/74/16 40/75/16 31/76/15
f 22/74/16 23/77/17 39/78/17 40/75/16
f 23/77/17 24/79/18 38/80/18 39/78/17
f 24/79/18 25/81/19 37/82/19 38/80/18
f 25/81/19 26/83/20 36/84/20 37/82/19
f 26/83/20 27/85/21 35/86/21 36/84/20
f 27/85/21 28/87/22 34/88/22 35/86/21
f 28/87/22 29/89/23 33/90/23 34/88/22
f 29/89/23 30/91/24 32/92/24 33/90/23
f 21/73/15 31/76/15 47/93/12 45/94/12
f 32/92/24 30/91/24 46/95/11 48/96/11
s 5
f 45/97/25 47/98/25 43/99/25 41/100/25
s 6
f 48/101/25 46/102/25 42/103/25 44/104/25
