{
  "accessors": [
    {
      "bufferView": 2,
      "componentType": 5126,
      "count": 34,
      "max": [
        0.8967689871788025,
        7.084139823913574,
        2.383419990539551
      ],
      "min": [
        -0.9107300043106079,
        5.852799892425537,
        1.5847699642181396
      ],
      "type": "VEC3"
    },
    {
      "bufferView": 2,
      "byteOffset": 408,
      "componentType": 5126,
      "count": 34,
      "max": [
        -0.012168404646217823,
        0.5229161977767944,
        0.852297306060791
      ],
      "min": [
        -0.012168404646217823,
        0.5229161977767944,
        0.852297306060791
      ],
      "type": "VEC3"
    },
    {
      "bufferView": 1,
      "componentType": 5126,
      "count": 34,
      "max": [
        0.5851539969444275,
        0.9066740274429321
      ],
      "min": [
        0.5492089986801147,
        0.6423609852790833
      ],
      "type": "VEC2"
    },
    {
      "bufferView": 0,
      "componentType": 5125,
      "count": 96,
      "type": "SCALAR"
    },
    {
      "bufferView": 2,
      "byteOffset": 816,
      "componentType": 5126,
      "count": 65532,
      "max": [
        11.397000312805176,
        11.337800025939941,
        3.0380098819732666
      ],
      "min": [
        -11.397000312805176,
        -12.100000381469727,
        -1.2847299575805664
      ],
      "type": "VEC3"
    },
    {
      "bufferView": 2,
      "byteOffset": 787200,
      "componentType": 5126,
      "count": 65532,
      "max": [
        1.0,
        1.0,
        1.0
      ],
      "min": [
        -1.0,
        -1.0,
        -1.0
      ],
      "type": "VEC3"
    },
    {
      "bufferView": 1,
      "byteOffset": 272,
      "componentType": 5126,
      "count": 65532,
      "max": [
        0.9989129900932312,
        0.9990000128746033
      ],
      "min": [
        0.0010000000474974513,
        0.0010000000474974513
      ],
      "type": "VEC2"
    },
    {
      "bufferView": 0,
      "byteOffset": 384,
      "componentType": 5125,
      "count": 209958,
      "type": "SCALAR"
    },
    {
      "bufferView": 2,
      "byteOffset": 1573584,
      "componentType": 5126,
      "count": 31520,
      "max": [
        11.367500305175781,
        11.337800025939941,
        3.0380098819732666
      ],
      "min": [
        -11.367500305175781,
        -12.0,
        -1.3084900379180908
      ],
      "type": "VEC3"
    },
    {
      "bufferView": 2,
      "byteOffset": 1951824,
      "componentType": 5126,
      "count": 31520,
      "max": [
        1.0,
        1.0,
        1.0
      ],
      "min": [
        -1.0,
        -1.0,
        -1.0
      ],
      "type": "VEC3"
    },
    {
      "bufferView": 1,
      "byteOffset": 524528,
      "componentType": 5126,
      "count": 31520,
      "max": [
        0.9957420229911804,
        0.99897700548172
      ],
      "min": [
        0.007104349788278341,
        0.0010000099427998066
      ],
      "type": "VEC2"
    },
    {
      "bufferView": 0,
      "byteOffset": 840216,
      "componentType": 5125,
      "count": 82716,
      "type": "SCALAR"
    },
    {
      "bufferView": 2,
      "byteOffset": 2330064,
      "componentType": 5126,
      "count": 1473,
      "max": [
        0.5382230281829834,
        4.670149803161621,
        2.6251299381256104
      ],
      "min": [
        -0.4851270020008087,
        2.309849977493286,
        2.236419916152954
      ],
      "type": "VEC3"
    },
    {
      "bufferView": 2,
      "byteOffset": 2347740,
      "componentType": 5126,
      "count": 1473,
      "max": [
        0.9965654611587524,
        1.0,
        0.9965655207633972
      ],
      "min": [
        -0.9935719966888428,
        -1.0,
        -0.9935722351074219
      ],
      "type": "VEC3"
    },
    {
      "bufferView": 1,
      "byteOffset": 776688,
      "componentType": 5126,
      "count": 1473,
      "max": [
        0.9862130284309387,
        0.9867510199546814
      ],
      "min": [
        0.023382600396871567,
        0.0010000099427998066
      ],
      "type": "VEC2"
    },
    {
      "bufferView": 0,
      "byteOffset": 1171080,
      "componentType": 5125,
      "count": 4416,
      "type": "SCALAR"
    },
    {
      "bufferView": 2,
      "byteOffset": 2365416,
      "componentType": 5126,
      "count": 216,
      "max": [
        3.8336899280548096,
        -12.0068998336792,
        2.6868600845336914
      ],
      "min": [
        -3.8336899280548096,
        -12.024499893188477,
        1.0431400537490845
      ],
      "type": "VEC3"
    },
    {
      "bufferView": 2,
      "byteOffset": 2368008,
      "componentType": 5126,
      "count": 216,
      "max": [
        0.0,
        -0.9896695017814636,
        0.14336808025836945
      ],
      "min": [
        0.0,
        -0.9896695017814636,
        0.14336808025836945
      ],
      "type": "VEC3"
    },
    {
      "bufferView": 1,
      "byteOffset": 788472,
      "componentType": 5126,
      "count": 216,
      "max": [
        0.7139469981193542,
        0.7051339745521545
      ],
      "min": [
        0.710843026638031,
        0.6503810286521912
      ],
      "type": "VEC2"
    },
    {
      "bufferView": 0,
      "byteOffset": 1188744,
      "componentType": 5125,
      "count": 540,
      "type": "SCALAR"
    },
    {
      "bufferView": 2,
      "byteOffset": 2370600,
      "componentType": 5126,
      "count": 508,
      "max": [
        5.176270008087158,
        6.178450107574463,
        1.2102700471878052
      ],
      "min": [
        -5.176270008087158,
        -3.8568999767303467,
        0.22905999422073364
      ],
      "type": "VEC3"
    },
    {
      "bufferView": 2,
      "byteOffset": 2376696,
      "componentType": 5126,
      "count": 508,
      "max": [
        0.9777129888534546,
        0.9980295300483704,
        0.983062744140625
      ],
      "min": [
        -0.003568509127944708,
        -0.9980295300483704,
        -0.983062744140625
      ],
      "type": "VEC3"
    },
    {
      "bufferView": 1,
      "byteOffset": 790200,
      "componentType": 5126,
      "count": 508,
      "max": [
        0.7505170106887817,
        1.0835299491882324
      ],
      "min": [
        -0.5564470291137695,
        -0.20109200477600098
      ],
      "type": "VEC2"
    },
    {
      "bufferView": 0,
      "byteOffset": 1190904,
      "componentType": 5125,
      "count": 972,
      "type": "SCALAR"
    },
    {
      "bufferView": 2,
      "byteOffset": 2382792,
      "componentType": 5126,
      "count": 2516,
      "max": [
        5.176270008087158,
        6.178450107574463,
        1.2102700471878052
      ],
      "min": [
        -5.176270008087158,
        -3.868720054626465,
        0.22905999422073364
      ],
      "type": "VEC3"
    },
    {
      "bufferView": 2,
      "byteOffset": 2412984,
      "componentType": 5126,
      "count": 2516,
      "max": [
        0.9997328519821167,
        0.9999662637710571,
        1.0
      ],
      "min": [
        -0.9933998584747314,
        -0.9999662637710571,
        -1.0
      ],
      "type": "VEC3"
    },
    {
      "bufferView": 1,
      "byteOffset": 794264,
      "componentType": 5126,
      "count": 2516,
      "max": [
        0.7971789836883545,
        1.1053099632263184
      ],
      "min": [
        -0.5599070191383362,
        -0.20109200477600098
      ],
      "type": "VEC2"
    },
    {
      "bufferView": 0,
      "byteOffset": 1194792,
      "componentType": 5125,
      "count": 5928,
      "type": "SCALAR"
    }
  ],
  "asset": {
    "extras": {
      "author": "Hangar.b.productions (https://sketchfab.com/hangar.b.productions)",
      "license": "CC-BY-4.0 (http://creativecommons.org/licenses/by/4.0/)",
      "source": "https://sketchfab.com/3d-models/maquis-fighter-3a56f5d6159e4362a2c92283a22a1871",
      "title": "Maquis Fighter"
    },
    "generator": "Sketchfab-12.68.0",
    "version": "2.0"
  },
  "bufferViews": [
    {
      "buffer": 0,
      "byteLength": 1218504,
      "name": "floatBufferViews",
      "target": 34963
    },
    {
      "buffer": 0,
      "byteLength": 814392,
      "byteOffset": 1218504,
      "byteStride": 8,
      "name": "floatBufferViews",
      "target": 34962
    },
    {
      "buffer": 0,
      "byteLength": 2443176,
      "byteOffset": 2032896,
      "byteStride": 12,
      "name": "floatBufferViews",
      "target": 34962
    }
  ],
  "buffers": [
    {
      "byteLength": 4476072,
      "uri": "scene.bin"
    }
  ],
  "images": [
    {
      "uri": "textures/FedFighter_baseColor.png"
    },
    {
      "uri": "textures/FedFighter_metallicRoughness.png"
    }
  ],
  "materials": [
    {
      "doubleSided": true,
      "name": "Black",
      "pbrMetallicRoughness": {
        "baseColorFactor": [
          0.0,
          0.0,
          0.0,
          1.0
        ],
        "metallicFactor": 0.4407393293,
        "roughnessFactor": 0.0
      }
    },
    {
      "doubleSided": true,
      "name": "FedFighter",
      "pbrMetallicRoughness": {
        "baseColorTexture": {
          "index": 0
        },
        "metallicRoughnessTexture": {
          "index": 1
        }
      }
    },
    {
      "doubleSided": true,
      "emissiveFactor": [
        1.0,
        0.040028054881271195,
        0.0
      ],
      "name": "material",
      "pbrMetallicRoughness": {
        "baseColorFactor": [
          0.6608212527,
          0.1156778575,
          0.0273650378,
          1.0
        ],
        "metallicFactor": 0.0,
        "roughnessFactor": 0.6
      }
    },
    {
      "doubleSided": true,
      "emissiveFactor": [
        0.16196004558141217,
        0.6515318535032565,
        1.0
      ],
      "name": "Warp_032Blue_032Transparent",
      "pbrMetallicRoughness": {
        "baseColorFactor": [
          0.0,
          0.1819810756,
          1.0,
          1.0
        ],
        "metallicFactor": 0.05,
        "roughnessFactor": 0.6
      }
    },
    {
      "doubleSided": true,
      "name": "Warp_032Grill",
      "pbrMetallicRoughness": {
        "baseColorFactor": [
          0.1061035794,
          0.0797623045,
          0.0546103246,
          1.0
        ],
        "roughnessFactor": 0.4143856079
      }
    }
  ],
  "meshes": [
    {
      "name": "Object_0",
      "primitives": [
        {
          "attributes": {
            "NORMAL": 1,
            "POSITION": 0,
            "TEXCOORD_0": 2
          },
          "indices": 3,
          "material": 0,
          "mode": 4
        }
      ]
    },
    {
      "name": "Object_1",
      "primitives": [
        {
          "attributes": {
            "NORMAL": 5,
            "POSITION": 4,
            "TEXCOORD_0": 6
          },
          "indices": 7,
          "material": 1,
          "mode": 4
        }
      ]
    },
    {
      "name": "Object_2",
      "primitives": [
        {
          "attributes": {
            "NORMAL": 9,
            "POSITION": 8,
            "TEXCOORD_0": 10
          },
          "indices": 11,
          "material": 1,
          "mode": 4
        }
      ]
    },
    {
      "name": "Object_3",
      "primitives": [
        {
          "attributes": {
            "NORMAL": 13,
            "POSITION": 12,
            "TEXCOORD_0": 14
          },
          "indices": 15,
          "material": 1,
          "mode": 4
        }
      ]
    },
    {
      "name": "Object_4",
      "primitives": [
        {
          "attributes": {
            "NORMAL": 17,
            "POSITION": 16,
            "TEXCOORD_0": 18
          },
          "indices": 19,
          "material": 2,
          "mode": 4
        }
      ]
    },
    {
      "name": "Object_5",
      "primitives": [
        {
          "attributes": {
            "NORMAL": 21,
            "POSITION": 20,
            "TEXCOORD_0": 22
          },
          "indices": 23,
          "material": 3,
          "mode": 4
        }
      ]
    },
    {
      "name": "Object_6",
      "primitives": [
        {
          "attributes": {
            "NORMAL": 25,
            "POSITION": 24,
            "TEXCOORD_0": 26
          },
          "indices": 27,
          "material": 4,
          "mode": 4
        }
      ]
    }
  ],
  "nodes": [
    {
      "children": [
        1
      ],
      "matrix": [
        1.0,
        0.0,
        0.0,
        0.0,
        0.0,
        2.220446049250313e-16,
        -1.0,
        0.0,
        0.0,
        1.0,
        2.220446049250313e-16,
        0.0,
        0.0,
        0.0,
        0.0,
        1.0
      ],
      "name": "Sketchfab_model"
    },
    {
      "children": [
        2,
        3,
        4,
        5,
        6,
        7,
        8
      ],
      "name": "Maquis4.obj.cleaner.materialmerger.gles"
    },
    {
      "mesh": 0,
      "name": "Object_2"
    },
    {
      "mesh": 1,
      "name": "Object_3"
    },
    {
      "mesh": 2,
      "name": "Object_4"
    },
    {
      "mesh": 3,
      "name": "Object_5"
    },
    {
      "mesh": 4,
      "name": "Object_6"
    },
    {
      "mesh": 5,
      "name": "Object_7"
    },
    {
      "mesh": 6,
      "name": "Object_8"
    }
  ],
  "samplers": [
    {
      "magFilter": 9729,
      "minFilter": 9987,
      "wrapS": 10497,
      "wrapT": 10497
    }
  ],
  "scene": 0,
  "scenes": [
    {
      "name": "Sketchfab_Scene",
      "nodes": [
        0
      ]
    }
  ],
  "textures": [
    {
      "sampler": 0,
      "source": 0
    },
    {
      "sampler": 0,
      "source": 1
    }
  ]
}
