# Blender 4.3.2
# www.blender.org
mtllib Heart.mtl
o Heart
v -0.091862 -0.193579 -0.031821
v 0.091862 -0.193579 -0.031821
v -0.070758 0.147581 -0.030327
v 0.070758 0.147582 -0.030327
v -0.091861 -0.193580 0.031821
v 0.091864 -0.193580 0.031821
v -0.070758 0.147581 0.030327
v 0.070758 0.147582 0.030327
v 0.000000 0.110727 -0.033486
v 0.000000 -0.285724 -0.030327
v 0.000000 -0.285724 0.030327
v 0.000000 0.110727 0.033486
v -0.190853 0.116413 -0.030327
v 0.190853 0.116413 -0.030327
v 0.190853 0.116413 0.030327
v -0.190853 0.116413 0.030327
v 0.000000 0.025038 -0.077173
v -0.204323 -0.019125 -0.030327
v 0.204323 -0.019125 0.030327
v 0.000000 0.025038 0.077173
v 0.204323 -0.019125 -0.030327
v -0.204323 -0.019125 0.030327
v -0.155712 -0.108183 -0.032876
v 0.155712 -0.108183 0.032876
v 0.000000 -0.116434 0.077173
v 0.155712 -0.108183 -0.032876
v -0.155712 -0.108183 0.032876
v 0.000000 -0.116434 -0.077173
v 0.219030 0.051757 -0.030327
v -0.219030 0.051757 0.030327
v -0.219030 0.051757 -0.030327
v 0.219030 0.051757 0.030327
v 0.137358 0.144715 -0.030327
v -0.137358 0.144715 0.030327
v -0.137358 0.144715 -0.030327
v 0.137358 0.144715 0.030327
v -0.082005 0.023087 0.066914
v -0.079078 -0.098872 0.066914
v 0.082005 0.023087 0.066914
v 0.079078 -0.098872 0.066914
v -0.082005 0.023087 -0.066914
v -0.079078 -0.098872 -0.066914
v 0.082005 0.023087 -0.066914
v 0.079078 -0.098872 -0.066914
v 0.093549 -0.206077 -0.010522
v 0.093549 -0.206077 0.010522
v -0.093549 -0.206077 0.010522
v -0.093549 -0.206077 -0.010522
v 0.069570 0.160742 -0.010522
v 0.069570 0.160742 0.010522
v -0.069570 0.160742 -0.010522
v -0.069570 0.160742 0.010522
v 0.000000 -0.299100 -0.010522
v 0.000000 -0.299100 0.010522
v 0.000000 0.122268 -0.010522
v 0.000000 0.122268 0.010522
v 0.201065 0.125167 -0.010522
v 0.201065 0.125167 0.010522
v -0.201065 0.125167 -0.010522
v -0.201065 0.125167 0.010522
v 0.216876 -0.023458 -0.010522
v 0.216876 -0.023458 0.010522
v -0.216876 -0.023458 -0.010522
v -0.216876 -0.023458 0.010522
v 0.167598 -0.109629 -0.010522
v 0.167598 -0.109629 0.010522
v -0.167598 -0.109629 -0.010522
v -0.167598 -0.109629 0.010522
v -0.232951 0.053226 -0.010522
v -0.232951 0.053226 0.010522
v 0.232951 0.053226 -0.010522
v 0.232951 0.053226 0.010522
v -0.140983 0.157843 -0.010522
v -0.140983 0.157843 0.010522
v 0.140983 0.157843 -0.010522
v 0.140983 0.157843 0.010522
vn -0.5239 -0.4745 -0.7074
vn -0.5937 -0.3462 -0.7264
vn -0.2676 -0.1387 -0.9535
vn -0.5239 -0.4745 0.7074
vn -0.0000 -0.1681 0.9858
vn -0.2676 -0.1387 0.9535
vn -0.7297 -0.6510 0.2093
vn -0.0000 -0.9653 -0.2613
vn -0.0000 -0.9653 0.2613
vn 0.7297 -0.6510 0.2093
vn 0.8180 -0.5293 -0.2253
vn 0.8180 -0.5293 0.2253
vn -0.2161 0.9367 0.2756
vn -0.0000 0.9647 -0.2634
vn -0.0000 0.9647 0.2634
vn 0.2161 0.9367 0.2756
vn -0.2536 0.9247 -0.2839
vn -0.2536 0.9247 0.2839
vn 0.1569 0.1214 -0.9801
vn -0.0000 0.5855 -0.8107
vn -0.1407 0.6199 -0.7720
vn 0.5239 -0.4745 0.7074
vn 0.5937 -0.3462 0.7264
vn 0.2676 -0.1387 0.9535
vn 0.7297 -0.6510 -0.2093
vn 0.2161 0.9367 -0.2756
vn -0.1614 0.5891 -0.7918
vn -0.1569 0.1214 -0.9801
vn -0.4551 0.4210 -0.7846
vn -0.0000 0.5855 0.8107
vn -0.1569 0.1214 0.9801
vn -0.0000 0.2318 0.9728
vn 0.7076 0.6493 0.2789
vn 0.2536 0.9247 -0.2839
vn 0.2536 0.9247 0.2839
vn -0.7075 0.6493 0.2789
vn -0.9526 0.1007 -0.2870
vn -0.9526 0.1007 0.2870
vn 0.1614 0.5891 0.7918
vn 0.1569 0.1214 0.9801
vn 0.4551 0.4210 0.7846
vn -0.6087 0.0657 -0.7907
vn -0.5757 -0.2102 -0.7902
vn 0.8968 -0.3396 0.2835
vn 0.9526 0.1007 -0.2870
vn 0.9526 0.1007 0.2870
vn 0.6087 0.0657 0.7907
vn 0.5757 -0.2102 0.7902
vn -0.8968 -0.3396 0.2835
vn -0.8180 -0.5293 -0.2253
vn -0.8180 -0.5293 0.2253
vn 0.2676 -0.1387 -0.9535
vn -0.0000 0.2318 -0.9728
vn 0.8968 -0.3396 -0.2835
vn -0.7297 -0.6510 -0.2093
vn 0.5239 -0.4745 -0.7074
vn -0.0000 -0.1681 -0.9858
vn -0.8968 -0.3396 -0.2835
vn 0.7075 0.6493 -0.2789
vn -0.7076 0.6493 -0.2789
vn -0.2161 0.9367 -0.2756
vn -0.1614 0.5891 0.7918
vn 0.1407 0.6199 0.7720
vn -0.6087 0.0657 0.7907
vn -0.5757 -0.2102 0.7902
vn -0.5937 -0.3462 0.7264
vn -0.1407 0.6199 0.7720
vn -0.0000 -0.6752 0.7376
vn 0.1407 0.6199 -0.7720
vn -0.0000 -0.6752 -0.7376
vn 0.1614 0.5891 -0.7918
vn 0.6087 0.0657 -0.7907
vn 0.4551 0.4210 -0.7846
vn 0.5937 -0.3462 -0.7264
vn 0.5757 -0.2102 -0.7902
vn -0.4551 0.4210 0.7846
vt 0.195538 0.462933
vt 0.178213 0.442258
vt 0.199118 0.437674
vt 0.195827 0.259328
vt 0.219288 0.280870
vt 0.199318 0.284604
vt 0.045335 0.358141
vt 0.007826 0.364140
vt 0.007777 0.358141
vt 0.393250 0.358141
vt 0.358600 0.364140
vt 0.358549 0.358141
vt 0.245552 0.358140
vt 0.219181 0.364977
vt 0.219181 0.357359
vt 0.192757 0.358199
vt 0.172454 0.364140
vt 0.172401 0.358141
vt 0.241113 0.406335
vt 0.219123 0.374136
vt 0.244452 0.370741
vt 0.242819 0.259413
vt 0.260142 0.280085
vt 0.239240 0.284668
vt 0.430900 0.358141
vt 0.393301 0.364140
vt 0.192811 0.364194
vt 0.176559 0.375656
vt 0.197150 0.406277
vt 0.164929 0.385880
vt 0.219240 0.348201
vt 0.197250 0.316006
vt 0.219242 0.317146
vt 0.285422 0.358141
vt 0.265976 0.364140
vt 0.265921 0.358141
vt 0.152925 0.358141
vt 0.130569 0.364140
vt 0.130519 0.358141
vt 0.261799 0.346678
vt 0.241209 0.316062
vt 0.273427 0.336455
vt 0.159182 0.402338
vt 0.164332 0.419849
vt 0.330221 0.358141
vt 0.307919 0.364140
vt 0.307867 0.358141
vt 0.279173 0.319999
vt 0.274023 0.302490
vt 0.108212 0.358141
vt 0.080001 0.364140
vt 0.079951 0.358141
vt 0.239044 0.437740
vt 0.219120 0.405194
vt 0.330273 0.364140
vt 0.045384 0.364140
vt 0.242535 0.463019
vt 0.219072 0.441474
vt 0.108262 0.364140
vt 0.285475 0.364140
vt 0.152976 0.364140
vt 0.245608 0.364137
vt 0.176512 0.346600
vt 0.193914 0.351596
vt 0.159225 0.319814
vt 0.164451 0.302310
vt 0.178422 0.279942
vt 0.244401 0.351594
vt 0.219357 0.241387
vt 0.193959 0.370741
vt 0.219002 0.480961
vt 0.261855 0.375738
vt 0.279143 0.402527
vt 0.273457 0.386026
vt 0.259942 0.442403
vt 0.193313 0.253428
vt 0.219368 0.235383
vt 0.193002 0.468823
vt 0.266270 0.277340
vt 0.266063 0.445172
vt 0.245049 0.468919
vt 0.192446 0.358286
vt 0.173162 0.352320
vt 0.192522 0.364053
vt 0.245354 0.253523
vt 0.218991 0.486966
vt 0.265120 0.352405
vt 0.265206 0.370017
vt 0.278947 0.382678
vt 0.159422 0.339661
vt 0.152979 0.319948
vt 0.159461 0.382513
vt 0.279940 0.300092
vt 0.285412 0.320157
vt 0.279829 0.422457
vt 0.273916 0.420034
vt 0.172302 0.277174
vt 0.172085 0.445002
vt 0.158414 0.422247
vt 0.158538 0.299887
vt 0.152942 0.402179
vt 0.278895 0.339821
vt 0.285390 0.402394
vt 0.164911 0.336313
vt 0.173238 0.369929
vt 0.245839 0.358281
vt 0.245920 0.364050
vt 0.430951 0.364140
s 1
usemtl Pickup_Items_Base_Color
f 1/1/1 23/2/2 42/3/3
f 5/4/4 25/5/5 38/6/6
f 47/7/7 53/8/8 54/9/9
f 46/10/10 65/11/11 66/12/12
f 50/13/13 55/14/14 56/15/15
f 52/16/16 73/17/17 74/18/18
f 43/19/19 9/20/20 4/21/21
f 6/22/22 24/23/23 40/24/24
f 54/25/9 45/26/25 46/10/10
f 56/15/15 51/27/26 52/16/16
f 35/28/27 41/29/28 13/30/29
f 12/31/30 37/32/31 20/33/32
f 58/34/33 75/35/34 76/36/35
f 60/37/36 69/38/37 70/39/38
f 36/40/39 39/41/40 15/42/41
f 31/43/42 41/29/28 18/44/43
f 62/45/44 71/46/45 72/47/46
f 32/48/47 39/41/40 19/49/48
f 64/50/49 67/51/50 68/52/51
f 44/53/52 17/54/53 43/19/19
f 23/2/2 41/29/28 42/3/3
f 20/33/32 38/6/6 25/5/5
f 66/12/12 61/55/54 62/45/44
f 24/23/23 39/41/40 40/24/24
f 68/52/51 48/56/55 47/7/7
f 2/57/56 28/58/57 44/53/52
f 70/39/38 63/59/58 64/50/49
f 72/47/46 57/60/59 58/34/33
f 74/18/18 59/61/60 60/37/36
f 76/36/35 49/62/61 50/13/13
f 34/63/62 37/32/31 7/64/63
f 37/32/31 30/65/64 22/66/65
f 37/32/31 27/67/66 38/6/6
f 38/6/6 27/67/66 5/4/4
f 12/31/30 39/41/40 8/68/67
f 20/33/32 40/24/24 39/41/40
f 6/22/22 25/5/5 11/69/68
f 9/20/20 41/29/28 3/70/69
f 17/54/53 42/3/3 41/29/28
f 1/1/1 28/58/57 10/71/70
f 33/72/71 43/19/19 4/21/21
f 29/73/72 43/19/19 14/74/73
f 43/19/19 26/75/74 44/53/52
f 44/53/52 26/75/74 2/57/56
f 11/69/68 47/76/7 54/77/9
f 10/71/70 48/78/55 1/1/1
f 6/22/22 66/79/12 24/23/23
f 2/57/56 65/80/11 45/81/25
f 8/68/67 56/15/15 12/31/30
f 4/21/21 55/14/14 49/62/61
f 34/63/62 52/82/16 74/83/18
f 35/28/27 51/84/26 3/70/69
f 11/69/68 46/85/10 6/22/22
f 10/71/70 45/81/25 53/86/8
f 7/64/63 56/15/15 52/16/16
f 3/70/69 55/14/14 9/20/20
f 15/42/41 76/87/35 36/40/39
f 14/74/73 75/88/34 57/89/59
f 30/65/64 60/90/36 70/91/38
f 31/43/42 59/92/60 13/30/29
f 32/48/47 62/93/44 72/94/46
f 29/73/72 61/95/54 21/96/75
f 22/66/65 68/97/51 27/67/66
f 18/44/43 67/98/50 63/99/58
f 19/49/48 66/79/12 62/93/44
f 21/96/75 65/80/11 26/75/74
f 5/4/4 68/97/51 47/76/7
f 1/1/1 67/98/50 23/2/2
f 30/65/64 64/100/49 22/66/65
f 31/43/42 63/99/58 69/101/37
f 32/48/47 58/102/33 15/42/41
f 29/73/72 57/89/59 71/103/45
f 16/104/76 74/83/18 60/90/36
f 13/30/29 73/105/17 35/28/27
f 36/40/39 50/106/13 8/68/67
f 33/72/71 49/107/61 75/88/34
f 5/4/4 11/69/68 25/5/5
f 47/7/7 48/56/55 53/8/8
f 46/10/10 45/26/25 65/11/11
f 50/13/13 49/62/61 55/14/14
f 52/16/16 51/27/26 73/17/17
f 43/19/19 17/54/53 9/20/20
f 54/25/9 53/108/8 45/26/25
f 56/15/15 55/14/14 51/27/26
f 35/28/27 3/70/69 41/29/28
f 12/31/30 7/64/63 37/32/31
f 58/34/33 57/60/59 75/35/34
f 60/37/36 59/61/60 69/38/37
f 36/40/39 8/68/67 39/41/40
f 31/43/42 13/30/29 41/29/28
f 62/45/44 61/55/54 71/46/45
f 32/48/47 15/42/41 39/41/40
f 64/50/49 63/59/58 67/51/50
f 44/53/52 28/58/57 17/54/53
f 23/2/2 18/44/43 41/29/28
f 20/33/32 37/32/31 38/6/6
f 66/12/12 65/11/11 61/55/54
f 24/23/23 19/49/48 39/41/40
f 68/52/51 67/51/50 48/56/55
f 2/57/56 10/71/70 28/58/57
f 70/39/38 69/38/37 63/59/58
f 72/47/46 71/46/45 57/60/59
f 74/18/18 73/17/17 59/61/60
f 76/36/35 75/35/34 49/62/61
f 34/63/62 16/104/76 37/32/31
f 37/32/31 16/104/76 30/65/64
f 37/32/31 22/66/65 27/67/66
f 12/31/30 20/33/32 39/41/40
f 20/33/32 25/5/5 40/24/24
f 6/22/22 40/24/24 25/5/5
f 9/20/20 17/54/53 41/29/28
f 17/54/53 28/58/57 42/3/3
f 1/1/1 42/3/3 28/58/57
f 33/72/71 14/74/73 43/19/19
f 29/73/72 21/96/75 43/19/19
f 43/19/19 21/96/75 26/75/74
f 11/69/68 5/4/4 47/76/7
f 10/71/70 53/86/8 48/78/55
f 6/22/22 46/85/10 66/79/12
f 2/57/56 26/75/74 65/80/11
f 8/68/67 50/13/13 56/15/15
f 4/21/21 9/20/20 55/14/14
f 34/63/62 7/64/63 52/82/16
f 35/28/27 73/105/17 51/84/26
f 11/69/68 54/77/9 46/85/10
f 10/71/70 2/57/56 45/81/25
f 7/64/63 12/31/30 56/15/15
f 3/70/69 51/27/26 55/14/14
f 15/42/41 58/102/33 76/87/35
f 14/74/73 33/72/71 75/88/34
f 30/65/64 16/104/76 60/90/36
f 31/43/42 69/101/37 59/92/60
f 32/48/47 19/49/48 62/93/44
f 29/73/72 71/103/45 61/95/54
f 22/66/65 64/100/49 68/97/51
f 18/44/43 23/2/2 67/98/50
f 19/49/48 24/23/23 66/79/12
f 21/96/75 61/95/54 65/80/11
f 5/4/4 27/67/66 68/97/51
f 1/1/1 48/78/55 67/98/50
f 30/65/64 70/91/38 64/100/49
f 31/43/42 18/44/43 63/99/58
f 32/48/47 72/94/46 58/102/33
f 29/73/72 14/74/73 57/89/59
f 16/104/76 34/63/62 74/83/18
f 13/30/29 59/92/60 73/105/17
f 36/40/39 76/87/35 50/106/13
f 33/72/71 4/21/21 49/107/61
