# Blender 4.3.2
# www.blender.org
mtllib Shield.mtl
o Shield
v -0.058622 -0.291190 0.001903
v 0.058622 -0.291190 0.001903
v -0.069928 0.174825 -0.000531
v 0.069927 0.174824 -0.000531
v -0.070317 -0.291190 0.079384
v 0.070316 -0.291190 0.079384
v -0.086117 0.174745 0.076166
v 0.086115 0.174744 0.076164
v 0.000000 0.208326 0.007460
v 0.000000 -0.327694 0.007460
v 0.000000 -0.327694 0.085846
v 0.000000 0.208326 0.085846
v 0.130592 -0.213104 -0.021385
v 0.143593 0.151604 -0.027799
v 0.176826 0.151439 0.043190
v 0.157650 -0.213263 0.052179
v -0.143593 0.151603 -0.027799
v -0.130593 -0.213104 -0.021390
v -0.157649 -0.213263 0.052177
v -0.176826 0.151439 0.043192
v 0.178688 -0.111839 -0.049222
v 0.180070 0.143799 -0.050199
v 0.224504 0.143750 0.014374
v 0.219167 -0.112033 0.017904
v -0.180070 0.143799 -0.050201
v -0.178689 -0.111839 -0.049220
v -0.219169 -0.112033 0.017902
v -0.224505 0.143749 0.014374
v 0.200076 -0.006386 -0.065748
v 0.205409 0.137896 -0.070362
v 0.254285 0.138049 -0.009078
v 0.248170 -0.006395 -0.003851
v -0.205411 0.137897 -0.070362
v -0.200074 -0.006387 -0.065750
v -0.248171 -0.006396 -0.003851
v -0.254285 0.138050 -0.009078
v -0.204823 0.074321 -0.069845
v -0.255891 0.074334 -0.010372
v 0.204823 0.074321 -0.069845
v 0.255891 0.074334 -0.010370
vn -0.0000 -0.0022 -1.0000
vn 0.1517 0.0005 -0.9884
vn 0.2065 -0.0027 -0.9784
vn -0.1516 0.0005 -0.9884
vn -0.2065 -0.0027 -0.9784
vn -0.3455 0.0021 -0.9384
vn 0.3455 0.0021 -0.9384
vn 0.4262 -0.0023 -0.9046
vn -0.4262 -0.0023 -0.9046
vn -0.5158 0.0024 -0.8567
vn 0.5157 0.0024 -0.8568
vn 0.5683 -0.0006 -0.8228
vn -0.5683 -0.0006 -0.8228
vn -0.6227 -0.0006 -0.7824
vn -0.6259 -0.0024 -0.7799
vn 0.6258 -0.0024 -0.7800
vn 0.6227 -0.0006 -0.7825
vn 0.6136 -0.0000 -0.7896
vn -0.6135 -0.0000 -0.7897
vn -0.0000 0.0027 1.0000
vn -0.1531 -0.0008 0.9882
vn -0.0000 -0.0000 1.0000
vn 0.1530 -0.0008 0.9882
vn 0.2074 0.0033 0.9783
vn 0.3417 -0.0030 0.9398
vn 0.4231 0.0028 0.9061
vn -0.2074 0.0033 0.9783
vn -0.3418 -0.0030 0.9398
vn 0.5064 -0.0037 0.8623
vn 0.5647 0.0007 0.8253
vn -0.4231 0.0028 0.9061
vn -0.5064 -0.0037 0.8623
vn 0.6230 0.0028 0.7822
vn 0.6186 -0.0003 0.7857
vn -0.5647 0.0007 0.8253
vn -0.6187 -0.0004 0.7857
vn -0.6230 0.0028 0.7822
vn -0.6060 -0.0010 0.7955
vn 0.6060 -0.0010 0.7955
vn -0.4916 -0.8699 -0.0391
vn -0.5688 -0.8198 -0.0666
vn -0.5939 -0.7959 -0.1173
vn -0.7722 -0.0438 -0.6338
vn -0.7688 0.0071 -0.6394
vn -0.7579 -0.0449 -0.6508
vn -0.7221 -0.6496 -0.2381
vn -0.7258 -0.6187 -0.3007
vn -0.7907 -0.4225 -0.4430
vn -0.7765 -0.3892 -0.4955
vn -0.7867 -0.2021 -0.5833
vn -0.7700 -0.1752 -0.6135
vn 0.7722 -0.0438 -0.6338
vn 0.7700 -0.1752 -0.6135
vn 0.7579 -0.0449 -0.6508
vn 0.5688 -0.8198 -0.0666
vn 0.4916 -0.8699 -0.0391
vn 0.5939 -0.7959 -0.1173
vn 0.7221 -0.6496 -0.2381
vn 0.7258 -0.6187 -0.3007
vn 0.7907 -0.4226 -0.4430
vn 0.7765 -0.3892 -0.4955
vn 0.7867 -0.2021 -0.5833
vn 0.7688 0.0071 -0.6394
vn 0.3901 0.9200 -0.0392
vn 0.3151 0.9479 -0.0462
vn 0.3328 0.9393 -0.0834
vn 0.1864 0.9799 -0.0707
vn 0.1987 0.9748 -0.1013
vn 0.1281 0.9887 -0.0776
vn 0.1414 0.9846 -0.1032
vn 0.1272 0.9877 -0.0915
vn 0.1390 0.9838 -0.1133
vn -0.3151 0.9479 -0.0462
vn -0.3900 0.9200 -0.0392
vn -0.3328 0.9393 -0.0834
vn -0.1864 0.9799 -0.0707
vn -0.1987 0.9748 -0.1013
vn -0.1281 0.9887 -0.0775
vn -0.1413 0.9846 -0.1031
vn -0.1272 0.9877 -0.0914
vn -0.0000 -0.0000 -1.0000
vn -0.4607 -0.8875 -0.0000
vn -0.7814 0.0324 -0.6232
vn 0.4608 -0.8875 -0.0000
vn 0.7814 0.0323 -0.6232
vn 0.3633 0.9317 -0.0000
vn -0.3633 0.9317 -0.0000
vn -0.1390 0.9838 -0.1133
vt 0.227305 0.992047
vt 0.246718 0.861126
vt 0.250461 0.983266
vt 0.207878 0.861126
vt 0.204130 0.983266
vt 0.184007 0.881591
vt 0.270531 0.881591
vt 0.274829 0.977179
vt 0.179692 0.977179
vt 0.168039 0.908132
vt 0.286429 0.908132
vt 0.286885 0.975133
vt 0.167580 0.975133
vt 0.159160 0.973586
vt 0.159355 0.956923
vt 0.295060 0.956923
vt 0.295254 0.973586
vt 0.293492 0.935770
vt 0.160933 0.935770
vt 0.077804 0.992082
vt 0.058610 0.857745
vt 0.077804 0.847929
vt 0.096984 0.857745
vt 0.101291 0.983049
vt 0.120783 0.878697
vt 0.126006 0.976775
vt 0.054296 0.983049
vt 0.034751 0.878697
vt 0.137531 0.905914
vt 0.138983 0.974702
vt 0.029508 0.976775
vt 0.017927 0.905914
vt 0.147520 0.956029
vt 0.147083 0.973164
vt 0.016466 0.974702
vt 0.008315 0.973165
vt 0.007875 0.956029
vt 0.009989 0.934319
vt 0.145420 0.934319
vt 0.009479 0.568435
vt 0.031922 0.581440
vt 0.010257 0.581440
vt 0.043268 0.695000
vt 0.020250 0.710076
vt 0.021126 0.695000
vt 0.037381 0.613339
vt 0.014722 0.613339
vt 0.041714 0.645396
vt 0.018971 0.645396
vt 0.043133 0.674600
vt 0.020750 0.674600
vt 0.008091 0.850415
vt 0.030609 0.830015
vt 0.030233 0.850415
vt 0.019437 0.736856
vt 0.041880 0.723850
vt 0.041102 0.736856
vt 0.013978 0.768754
vt 0.036637 0.768754
vt 0.009645 0.800811
vt 0.032388 0.800811
vt 0.008226 0.830015
vt 0.031109 0.865491
vt 0.070804 0.835718
vt 0.048729 0.814708
vt 0.069159 0.814806
vt 0.052366 0.787662
vt 0.072237 0.792538
vt 0.057209 0.773120
vt 0.076033 0.781269
vt 0.061626 0.763685
vt 0.079844 0.773161
vt 0.087150 0.728362
vt 0.062096 0.746059
vt 0.065803 0.726418
vt 0.086062 0.702576
vt 0.064791 0.705140
vt 0.082494 0.688469
vt 0.061969 0.694187
vt 0.078843 0.679182
vt 0.227305 0.851559
vt 0.029848 0.568435
vt 0.042576 0.710076
vt 0.021512 0.723850
vt 0.008784 0.865491
vt 0.050795 0.839956
vt 0.082543 0.752003
vt 0.058809 0.686195
s 1
usemtl Pickup_Items_Specular
f 9/1/1 1/2/2 3/3/3
f 2/4/4 9/1/1 4/5/5
f 4/5/5 13/6/6 2/4/4
f 3/3/3 18/7/7 17/8/8
f 14/9/9 21/10/10 13/6/6
f 17/8/8 26/11/11 25/12/12
f 22/13/13 30/14/14 39/15/15
f 25/12/12 37/16/16 33/17/17
f 25/12/12 34/18/18 37/16/16
f 29/19/19 22/13/13 39/15/15
f 12/20/20 5/21/21 11/22/22
f 6/23/23 12/20/20 11/22/22
f 8/24/24 16/25/25 15/26/26
f 7/27/27 19/28/28 5/21/21
f 15/26/26 24/29/29 23/30/30
f 20/31/31 27/32/32 19/28/28
f 23/30/30 40/33/33 31/34/34
f 28/35/35 36/36/36 38/37/37
f 35/38/38 28/35/35 38/37/37
f 23/30/30 32/39/39 40/33/33
f 10/40/40 5/41/41 1/42/42
f 38/43/43 33/44/44 37/45/45
f 1/42/42 19/46/46 18/47/47
f 18/47/47 27/48/48 26/49/49
f 26/49/49 35/50/50 34/51/51
f 34/51/51 38/43/43 37/45/45
f 40/52/52 29/53/53 39/54/54
f 6/55/55 10/56/56 2/57/57
f 2/57/57 16/58/58 6/55/55
f 13/59/59 24/60/60 16/58/58
f 21/61/61 32/62/62 24/60/60
f 30/63/63 40/52/52 39/54/54
f 9/64/64 8/65/65 4/66/66
f 4/66/66 15/67/67 14/68/68
f 14/68/68 23/69/69 22/70/70
f 22/70/70 31/71/71 30/72/72
f 7/73/73 9/74/74 3/75/75
f 3/75/75 20/76/76 7/73/73
f 17/77/77 28/78/78 20/76/76
f 25/79/79 36/80/80 28/78/78
f 9/1/1 10/81/81 1/2/2
f 2/4/4 10/81/81 9/1/1
f 4/5/5 14/9/9 13/6/6
f 3/3/3 1/2/2 18/7/7
f 14/9/9 22/13/13 21/10/10
f 17/8/8 18/7/7 26/11/11
f 25/12/12 26/11/11 34/18/18
f 29/19/19 21/10/10 22/13/13
f 12/20/20 7/27/27 5/21/21
f 6/23/23 8/24/24 12/20/20
f 8/24/24 6/23/23 16/25/25
f 7/27/27 20/31/31 19/28/28
f 15/26/26 16/25/25 24/29/29
f 20/31/31 28/35/35 27/32/32
f 35/38/38 27/32/32 28/35/35
f 23/30/30 24/29/29 32/39/39
f 10/40/40 11/82/82 5/41/41
f 38/43/43 36/83/83 33/44/44
f 1/42/42 5/41/41 19/46/46
f 18/47/47 19/46/46 27/48/48
f 26/49/49 27/48/48 35/50/50
f 34/51/51 35/50/50 38/43/43
f 40/52/52 32/62/62 29/53/53
f 6/55/55 11/84/84 10/56/56
f 2/57/57 13/59/59 16/58/58
f 13/59/59 21/61/61 24/60/60
f 21/61/61 29/53/53 32/62/62
f 30/63/63 31/85/85 40/52/52
f 9/64/64 12/86/86 8/65/65
f 4/66/66 8/65/65 15/67/67
f 14/68/68 15/67/67 23/69/69
f 22/70/70 23/69/69 31/71/71
f 7/73/73 12/87/87 9/74/74
f 3/75/75 17/77/77 20/76/76
f 17/77/77 25/79/79 28/78/78
f 25/79/79 33/88/88 36/80/80
